<?xml version="1.0" encoding="utf-8"?>
<!-- Generator: Adobe Illustrator 27.8.1, SVG Export Plug-In . SVG Version: 6.00 Build 0)  -->
<svg version="1.1" id="Layer_1" xmlns="http://www.w3.org/2000/svg" xmlns:xlink="http://www.w3.org/1999/xlink" x="0px" y="0px"
	 viewBox="0 0 807.5 214.7" style="enable-background:new 0 0 807.5 214.7;" xml:space="preserve">
<style type="text/css">
	.st0{fill:#FFFFFF;}
	.st1{fill:#64A6F8;}
</style>
<g>
	<path class="st0" d="M783.7,214.7h-760C10.6,214.7,0,204.1,0,191V23.7C0,10.6,10.6,0,23.7,0h760c13.1,0,23.7,10.6,23.7,23.7V191
		C807.5,204.1,796.9,214.7,783.7,214.7z"/>
	<g>
		<g>
			<path d="M196.2,127.3l-10-0.2l20.9-38.2h25.6l-29.8,47.3H181l-24.4-36.7l11.4,0.1l-25.4,36.6h-21.8L92.6,88.9H118l19.7,38.2h-9.9
				l21.8-38.2h25.6L196.2,127.3z"/>
			<path d="M262.9,64.1v14.5h-24.5V64.1H262.9z M239.1,88.9h23.2v47.3h-23.2V88.9z"/>
			<path d="M274,69.6h23.2v66.6H274V69.6z"/>
			<path d="M342.3,137.6c-6.9,0-13.1-1-18.5-2.9c-5.4-2-9.7-4.8-12.8-8.5c-3.1-3.7-4.7-8.2-4.7-13.5c0-5.5,1.6-10.2,4.7-13.9
				c3.1-3.7,7.4-6.5,12.8-8.4c5.4-1.9,11.6-2.8,18.5-2.8c5.8,0,11,0.6,15.6,1.8c4.6,1.2,8.6,2.9,11.9,5.1c3.3,2.2,5.8,4.9,7.5,8
				c1.7,3.1,2.6,6.5,2.6,10.2c0,3.7-0.9,7.1-2.6,10.2c-1.7,3.1-4.2,5.7-7.5,7.9c-3.3,2.2-7.2,3.9-11.9,5.1
				C353.3,137,348.1,137.6,342.3,137.6z M351,122.9c4.9,0,9.4-0.3,13.5-0.9c4.1-0.6,7.4-1.7,9.8-3.1c2.5-1.5,3.7-3.6,3.7-6.3
				c0-2.8-1.2-4.9-3.7-6.4c-2.5-1.5-5.8-2.5-9.8-3.1c-4.1-0.6-8.6-0.9-13.5-0.9c-6.6,0-11.6,0.9-15.2,2.6c-3.6,1.7-5.4,4.3-5.4,7.8
				c0,2.3,0.8,4.1,2.4,5.7c1.6,1.5,4,2.7,7,3.5C342.9,122.5,346.6,122.9,351,122.9z M378,69.6h23.2v66.6h-21.8
				c-0.3-1.5-0.5-3.9-0.9-7.2c-0.3-3.3-0.5-7-0.5-11.1V69.6z"/>
		</g>
		<g>
			<path class="st1" d="M476.7,123.7h8.2c0.3,2.5,1.4,4.5,3.3,6.1c1.9,1.6,4.6,2.4,8.1,2.4c2.2,0,4-0.3,5.2-0.8
				c1.2-0.5,2.1-1.3,2.7-2.2c0.5-0.9,0.8-2,0.8-3.1c0-1.4-0.4-2.5-1.1-3.3c-0.7-0.8-1.8-1.4-3.2-2c-1.4-0.5-3-1-4.8-1.5
				c-2-0.6-4.1-1.2-6.1-2c-2-0.7-3.9-1.6-5.6-2.7c-1.7-1.1-3.1-2.4-4.1-4c-1-1.6-1.5-3.5-1.5-5.8c0-1.9,0.4-3.7,1.3-5.4
				c0.8-1.7,2-3.1,3.6-4.3c1.6-1.2,3.4-2.1,5.5-2.8c2.1-0.7,4.4-1,7-1c3.5,0,6.5,0.6,8.9,1.9c2.4,1.3,4.3,3.1,5.5,5.3
				c1.3,2.3,1.9,4.9,2,7.9h-7.8c-0.4-2.6-1.3-4.5-2.7-5.7c-1.4-1.2-3.4-1.8-6.1-1.8c-2.7,0-4.7,0.5-6.1,1.6
				c-1.4,1.1-2.1,2.5-2.1,4.3c0,1.4,0.5,2.5,1.5,3.3s2.3,1.6,4,2.2c1.7,0.6,3.6,1.3,5.7,2c2,0.7,3.9,1.4,5.7,2.1
				c1.8,0.7,3.5,1.6,4.9,2.5c1.5,1,2.6,2.2,3.4,3.7c0.8,1.5,1.3,3.4,1.3,5.6c0,2.7-0.7,5.1-2,7.1c-1.4,2-3.3,3.6-5.9,4.7
				c-2.6,1.1-5.7,1.7-9.3,1.7c-3.3,0-6.2-0.4-8.5-1.2c-2.3-0.8-4.3-1.9-5.9-3.2c-1.6-1.3-2.8-2.7-3.6-4.1c-0.8-1.5-1.4-2.9-1.7-4.2
				S476.6,124.5,476.7,123.7z"/>
			<path class="st1" d="M520,92.3h30v7.7h-30V92.3z M530.6,80.1h8.8v58.7h-8.8V80.1z"/>
			<path class="st1" d="M576.8,139.7c-4,0-7.6-1-10.9-3.1c-3.3-2-5.9-4.9-7.8-8.5c-1.9-3.6-2.9-7.8-2.9-12.5c0-4.7,1-8.9,2.9-12.5
				c2-3.6,4.6-6.5,8-8.6c3.4-2.1,7.2-3.1,11.4-3.1c4.7,0,8.3,1.1,10.8,3.3c2.6,2.2,4.4,5.1,5.4,8.7c1,3.7,1.5,7.7,1.5,12.2
				c0,2.5-0.3,5.1-0.9,7.9c-0.6,2.8-1.6,5.4-3,7.9c-1.4,2.5-3.3,4.5-5.7,6C583.4,138.9,580.4,139.7,576.8,139.7z M579.3,131.9
				c3.3,0,6.1-0.7,8.3-2.2c2.3-1.5,4-3.4,5.1-5.9c1.1-2.5,1.7-5.2,1.7-8.3c0-3.3-0.6-6.2-1.7-8.6c-1.1-2.5-2.9-4.4-5.1-5.8
				c-2.3-1.4-5-2-8.2-2c-4.8,0-8.6,1.6-11.2,4.6c-2.6,3.1-4,7-4,11.8c0,3.2,0.7,6.1,2,8.5c1.3,2.4,3.1,4.4,5.3,5.8
				C573.7,131.2,576.4,131.9,579.3,131.9z M594.4,92.3h8.9v46.4h-8.2c-0.2-2.3-0.4-4.2-0.6-5.9c-0.1-1.6-0.2-3-0.2-4.3V92.3z"/>
			<path class="st1" d="M660.4,121.1c-0.4,3.8-1.6,7.2-3.7,10c-2.1,2.8-4.8,5-8.1,6.5c-3.3,1.5-7.1,2.2-11.2,2.2
				c-4.5,0-8.7-0.9-12.5-2.8c-3.8-1.9-6.8-4.6-9.1-8.3c-2.3-3.6-3.4-8-3.4-13c0-5.1,1.1-9.4,3.4-13.1c2.3-3.6,5.3-6.4,9.1-8.3
				c3.8-1.9,7.9-2.9,12.5-2.9c4.1,0,7.8,0.7,11.1,2.2c3.3,1.5,6,3.6,8.1,6.4c2.1,2.8,3.4,6.1,3.8,9.9h-8.1c-1.1-3.3-2.9-6-5.6-8
				c-2.7-2-5.8-2.9-9.3-2.9c-2.9,0-5.5,0.7-8,2c-2.4,1.3-4.4,3.2-5.9,5.6c-1.5,2.4-2.2,5.5-2.2,9.1c0,3.5,0.7,6.4,2.2,8.9
				c1.5,2.4,3.4,4.3,5.8,5.6c2.4,1.3,5.1,1.9,8,1.9c4,0,7.2-1,9.7-2.9c2.5-1.9,4.2-4.6,5.3-8.1H660.4z"/>
			<path class="st1" d="M670.8,73.7h8.8v65h-8.8V73.7z M713.1,92.3l-24.5,23.3l0.2-5.6l26.1,28.6h-11.3l-23.8-25.9l20.9-20.5H713.1z
				"/>
		</g>
		<g>
			<rect x="438" y="61" class="st1" width="3.6" height="92.7"/>
		</g>
	</g>
</g>
</svg>
