<?xml version="1.0" encoding="utf-8"?>
<!-- Generator: Adobe Illustrator 27.8.1, SVG Export Plug-In . SVG Version: 6.00 Build 0)  -->
<svg version="1.1" id="Layer_1" xmlns="http://www.w3.org/2000/svg" xmlns:xlink="http://www.w3.org/1999/xlink" x="0px" y="0px"
	 viewBox="0 0 1080 1080" style="enable-background:new 0 0 1080 1080;" xml:space="preserve">
<style type="text/css">
	.st0{fill:#FFFFFF;}
	.st1{fill:#DEDEDE;}
	.st2{fill:#64A6F8;}
	.st3{fill:#111519;}
	.st4{fill:#DF6F6D;}
</style>
<rect x="-2200" class="st0" width="1080" height="1080"/>
<rect x="1100" class="st1" width="1080" height="1080"/>
<g>
	<g>
		<path d="M-1963.5,569.2l-14.7-0.3l30.6-55.9h37.4l-43.6,69.1h-31.9l-35.7-53.6l16.6,0.1l-37.1,53.5h-31.9l-41.3-69.1h37.2
			l28.8,55.9h-14.5l31.9-55.9h37.4L-1963.5,569.2z"/>
		<path d="M-1865.9,476.8V498h-35.8v-21.2H-1865.9z M-1900.7,513.1h33.9v69.1h-33.9V513.1z"/>
		<path d="M-1849.7,484.9h33.9v97.3h-33.9V484.9z"/>
		<path d="M-1749.8,584.2c-10.2,0-19.2-1.4-27.1-4.3c-7.9-2.9-14.1-7-18.7-12.5c-4.6-5.5-6.8-12-6.8-19.7c0-8.1,2.3-14.9,6.8-20.3
			c4.6-5.5,10.8-9.5,18.7-12.3c7.9-2.7,16.9-4.1,27.1-4.1c8.5,0,16.1,0.9,22.8,2.6c6.8,1.7,12.6,4.2,17.3,7.5
			c4.8,3.2,8.5,7.1,11,11.6c2.5,4.5,3.8,9.5,3.8,15c0,5.5-1.3,10.4-3.8,14.9c-2.5,4.5-6.2,8.3-11,11.6c-4.8,3.2-10.6,5.7-17.3,7.5
			C-1733.7,583.3-1741.3,584.2-1749.8,584.2z M-1737.1,562.7c7.1,0,13.7-0.4,19.7-1.3c6-0.9,10.8-2.4,14.4-4.6
			c3.6-2.2,5.4-5.2,5.4-9.2c0-4-1.8-7.1-5.4-9.3c-3.6-2.2-8.4-3.7-14.4-4.5c-6-0.8-12.5-1.3-19.7-1.3c-9.6,0-17,1.2-22.3,3.7
			c-5.3,2.5-7.9,6.3-7.9,11.4c0,3.3,1.2,6.1,3.5,8.3c2.3,2.3,5.8,3.9,10.3,5.1C-1748.9,562.2-1743.5,562.7-1737.1,562.7z
			 M-1697.6,484.9h33.9v97.3h-31.9c-0.4-2.2-0.8-5.7-1.3-10.5c-0.5-4.8-0.7-10.3-0.7-16.3V484.9z"/>
	</g>
	<g>
		<path class="st2" d="M-1553.4,563.9h12c0.5,3.6,2.1,6.6,4.9,8.9c2.8,2.3,6.8,3.5,11.8,3.5c3.3,0,5.8-0.4,7.6-1.2
			c1.8-0.8,3.1-1.8,3.9-3.2c0.8-1.4,1.2-2.9,1.2-4.5c0-2.1-0.5-3.7-1.6-4.8c-1.1-1.1-2.6-2.1-4.6-2.9c-2-0.8-4.3-1.5-7.1-2.2
			c-3-0.8-6-1.8-9-2.9s-5.7-2.4-8.2-3.9c-2.5-1.5-4.5-3.5-6-5.8c-1.5-2.3-2.2-5.1-2.2-8.5c0-2.8,0.6-5.4,1.8-7.9
			c1.2-2.4,3-4.6,5.3-6.3c2.3-1.8,5-3.1,8.1-4.1c3.1-1,6.5-1.4,10.2-1.4c5.2,0,9.5,0.9,13.1,2.8c3.5,1.9,6.2,4.5,8.1,7.8
			c1.9,3.4,2.8,7.2,2.9,11.6h-11.4c-0.6-3.8-1.9-6.6-3.9-8.4c-2-1.8-5-2.7-9-2.7c-3.9,0-6.9,0.8-9,2.3c-2.1,1.5-3.1,3.6-3.1,6.3
			c0,2,0.7,3.6,2.2,4.8c1.5,1.2,3.4,2.3,5.8,3.2c2.4,0.9,5.2,1.9,8.3,2.9c2.9,1,5.7,2,8.4,3.1c2.7,1,5.1,2.3,7.2,3.7
			c2.1,1.4,3.8,3.2,5,5.4c1.2,2.2,1.8,5,1.8,8.2c0,4-1,7.5-3,10.4c-2,2.9-4.9,5.2-8.6,6.9c-3.8,1.6-8.3,2.4-13.7,2.4
			c-4.9,0-9-0.6-12.4-1.8c-3.4-1.2-6.3-2.7-8.6-4.6c-2.3-1.9-4.1-3.9-5.3-6.1c-1.2-2.1-2-4.2-2.4-6.2
			C-1553.4,566.8-1553.5,565.1-1553.4,563.9z"/>
		<path class="st2" d="M-1490,518h43.9v11.3h-43.9V518z M-1474.5,500.1h12.9v85.8h-12.9V500.1z"/>
		<path class="st2" d="M-1406.9,587.2c-5.8,0-11.1-1.5-15.9-4.5c-4.8-3-8.6-7.1-11.4-12.4c-2.8-5.3-4.2-11.4-4.2-18.3
			c0-6.9,1.4-13,4.3-18.3c2.9-5.3,6.8-9.5,11.8-12.5c5-3,10.6-4.6,16.7-4.6c6.8,0,12.1,1.6,15.8,4.8c3.8,3.2,6.4,7.4,7.9,12.8
			c1.5,5.3,2.2,11.3,2.2,17.8c0,3.6-0.5,7.5-1.4,11.6s-2.4,7.9-4.3,11.6c-2,3.6-4.8,6.5-8.3,8.8
			C-1397.3,586.1-1401.7,587.2-1406.9,587.2z M-1403.3,576c4.8,0,8.9-1.1,12.2-3.2c3.3-2.1,5.8-5,7.4-8.6c1.6-3.6,2.4-7.7,2.4-12.1
			c0-4.8-0.8-9-2.5-12.6c-1.7-3.6-4.2-6.4-7.5-8.4c-3.3-2-7.3-3-12-3c-7.1,0-12.5,2.3-16.4,6.8c-3.9,4.5-5.8,10.3-5.8,17.3
			c0,4.7,1,8.9,2.9,12.4c1.9,3.6,4.5,6.4,7.8,8.4C-1411.4,574.9-1407.6,576-1403.3,576z M-1381.2,518h13.1v67.8h-12
			c-0.4-3.4-0.6-6.2-0.8-8.6c-0.2-2.4-0.3-4.4-0.3-6.3V518z"/>
		<path class="st2" d="M-1284.7,560c-0.5,5.6-2.3,10.5-5.4,14.6c-3,4.1-7,7.3-11.9,9.4c-4.9,2.2-10.3,3.3-16.3,3.3
			c-6.6,0-12.7-1.4-18.2-4.1c-5.5-2.8-9.9-6.8-13.3-12.1c-3.3-5.3-5-11.6-5-19c0-7.4,1.7-13.8,5-19.1c3.3-5.3,7.7-9.4,13.3-12.2
			c5.5-2.8,11.6-4.2,18.2-4.2c6,0,11.4,1.1,16.2,3.3c4.8,2.2,8.7,5.3,11.8,9.3c3.1,4,4.9,8.9,5.6,14.5h-11.8
			c-1.5-4.9-4.3-8.8-8.2-11.6c-3.9-2.9-8.5-4.3-13.5-4.3c-4.2,0-8,1-11.6,2.9c-3.6,1.9-6.4,4.6-8.6,8.2c-2.1,3.6-3.2,8-3.2,13.3
			c0,5.1,1.1,9.4,3.2,13c2.1,3.6,5,6.3,8.5,8.2c3.5,1.9,7.4,2.8,11.7,2.8c5.8,0,10.5-1.4,14.1-4.2c3.6-2.8,6.2-6.8,7.7-11.8H-1284.7
			z"/>
		<path class="st2" d="M-1269.5,490.8h12.9v95h-12.9V490.8z M-1207.6,518l-35.9,34.1l0.3-8.2l38.2,41.9h-16.5l-34.8-37.9l30.6-29.9
			H-1207.6z"/>
	</g>
	<g>
		<rect x="-1609.9" y="472.2" class="st2" width="5.3" height="135.6"/>
	</g>
</g>
<rect x="-1100" class="st3" width="1080" height="1080"/>
<g>
	<g>
		<path class="st0" d="M-863.5,569.2l-14.7-0.3l30.6-55.9h37.4l-43.6,69.1h-31.9l-35.7-53.6l16.6,0.1l-37.1,53.5h-31.9l-41.3-69.1
			h37.2l28.8,55.9h-14.5l31.9-55.9h37.4L-863.5,569.2z"/>
		<path class="st0" d="M-765.9,476.8V498h-35.8v-21.2H-765.9z M-800.7,513.1h33.9v69.1h-33.9V513.1z"/>
		<path class="st0" d="M-749.7,484.9h33.9v97.3h-33.9V484.9z"/>
		<path class="st0" d="M-649.8,584.2c-10.2,0-19.2-1.4-27.1-4.3c-7.9-2.9-14.1-7-18.7-12.5c-4.6-5.5-6.8-12-6.8-19.7
			c0-8.1,2.3-14.9,6.8-20.3c4.6-5.5,10.8-9.5,18.7-12.3c7.9-2.7,16.9-4.1,27.1-4.1c8.5,0,16.1,0.9,22.8,2.6
			c6.8,1.7,12.6,4.2,17.3,7.5c4.8,3.2,8.5,7.1,11,11.6c2.5,4.5,3.8,9.5,3.8,15c0,5.5-1.3,10.4-3.8,14.9c-2.5,4.5-6.2,8.3-11,11.6
			c-4.8,3.2-10.6,5.7-17.3,7.5C-633.7,583.3-641.3,584.2-649.8,584.2z M-637.1,562.7c7.1,0,13.7-0.4,19.7-1.3
			c6-0.9,10.8-2.4,14.4-4.6c3.6-2.2,5.4-5.2,5.4-9.2c0-4-1.8-7.1-5.4-9.3c-3.6-2.2-8.4-3.7-14.4-4.5c-6-0.8-12.5-1.3-19.7-1.3
			c-9.6,0-17,1.2-22.3,3.7c-5.3,2.5-7.9,6.3-7.9,11.4c0,3.3,1.2,6.1,3.5,8.3c2.3,2.3,5.8,3.9,10.3,5.1
			C-648.9,562.2-643.5,562.7-637.1,562.7z M-597.6,484.9h33.9v97.3h-31.9c-0.4-2.2-0.8-5.7-1.3-10.5c-0.5-4.8-0.7-10.3-0.7-16.3
			V484.9z"/>
	</g>
	<g>
		<path class="st2" d="M-453.4,563.9h12c0.5,3.6,2.1,6.6,4.9,8.9c2.8,2.3,6.8,3.5,11.8,3.5c3.3,0,5.8-0.4,7.6-1.2
			c1.8-0.8,3.1-1.8,3.9-3.2c0.8-1.4,1.2-2.9,1.2-4.5c0-2.1-0.5-3.7-1.6-4.8c-1.1-1.1-2.6-2.1-4.6-2.9c-2-0.8-4.3-1.5-7.1-2.2
			c-3-0.8-6-1.8-9-2.9c-3-1.1-5.7-2.4-8.2-3.9c-2.5-1.5-4.5-3.5-6-5.8c-1.5-2.3-2.2-5.1-2.2-8.5c0-2.8,0.6-5.4,1.8-7.9
			c1.2-2.4,3-4.6,5.3-6.3c2.3-1.8,5-3.1,8.1-4.1c3.1-1,6.5-1.4,10.2-1.4c5.2,0,9.5,0.9,13.1,2.8c3.5,1.9,6.2,4.5,8.1,7.8
			c1.9,3.4,2.8,7.2,2.9,11.6h-11.4c-0.6-3.8-1.9-6.6-3.9-8.4c-2-1.8-5-2.7-9-2.7c-3.9,0-6.9,0.8-9,2.3c-2.1,1.5-3.1,3.6-3.1,6.3
			c0,2,0.7,3.6,2.2,4.8c1.5,1.2,3.4,2.3,5.8,3.2c2.4,0.9,5.2,1.9,8.3,2.9c2.9,1,5.7,2,8.4,3.1c2.7,1,5.1,2.3,7.2,3.7
			c2.1,1.4,3.8,3.2,5,5.4c1.2,2.2,1.8,5,1.8,8.2c0,4-1,7.5-3,10.4c-2,2.9-4.9,5.2-8.6,6.9c-3.8,1.6-8.3,2.4-13.7,2.4
			c-4.9,0-9-0.6-12.4-1.8c-3.4-1.2-6.3-2.7-8.6-4.6c-2.3-1.9-4.1-3.9-5.3-6.1c-1.2-2.1-2-4.2-2.4-6.2
			C-453.4,566.8-453.5,565.1-453.4,563.9z"/>
		<path class="st2" d="M-390,518h43.9v11.3H-390V518z M-374.5,500.1h12.9v85.8h-12.9V500.1z"/>
		<path class="st2" d="M-306.9,587.2c-5.8,0-11.1-1.5-15.9-4.5c-4.8-3-8.6-7.1-11.4-12.4c-2.8-5.3-4.2-11.4-4.2-18.3
			c0-6.9,1.4-13,4.3-18.3c2.9-5.3,6.8-9.5,11.8-12.5c5-3,10.6-4.6,16.7-4.6c6.8,0,12.1,1.6,15.8,4.8c3.8,3.2,6.4,7.4,7.9,12.8
			c1.5,5.3,2.2,11.3,2.2,17.8c0,3.6-0.5,7.5-1.4,11.6c-0.9,4.1-2.4,7.9-4.3,11.6c-2,3.6-4.8,6.5-8.3,8.8
			C-297.3,586.1-301.7,587.2-306.9,587.2z M-303.3,576c4.8,0,8.9-1.1,12.2-3.2c3.3-2.1,5.8-5,7.4-8.6c1.6-3.6,2.4-7.7,2.4-12.1
			c0-4.8-0.8-9-2.5-12.6c-1.7-3.6-4.2-6.4-7.5-8.4c-3.3-2-7.3-3-12-3c-7.1,0-12.5,2.3-16.4,6.8c-3.9,4.5-5.8,10.3-5.8,17.3
			c0,4.7,1,8.9,2.9,12.4c1.9,3.6,4.5,6.4,7.8,8.4C-311.4,574.9-307.6,576-303.3,576z M-281.2,518h13.1v67.8h-12
			c-0.4-3.4-0.6-6.2-0.8-8.6c-0.2-2.4-0.3-4.4-0.3-6.3V518z"/>
		<path class="st2" d="M-184.7,560c-0.5,5.6-2.3,10.5-5.4,14.6c-3,4.1-7,7.3-11.9,9.4c-4.9,2.2-10.3,3.3-16.3,3.3
			c-6.6,0-12.7-1.4-18.2-4.1s-9.9-6.8-13.3-12.1c-3.3-5.3-5-11.6-5-19c0-7.4,1.7-13.8,5-19.1c3.3-5.3,7.7-9.4,13.3-12.2
			c5.5-2.8,11.6-4.2,18.2-4.2c6,0,11.4,1.1,16.2,3.3c4.8,2.2,8.7,5.3,11.8,9.3c3.1,4,4.9,8.9,5.6,14.5h-11.8
			c-1.5-4.9-4.3-8.8-8.2-11.6c-3.9-2.9-8.5-4.3-13.5-4.3c-4.2,0-8,1-11.6,2.9c-3.6,1.9-6.4,4.6-8.6,8.2c-2.1,3.6-3.2,8-3.2,13.3
			c0,5.1,1.1,9.4,3.2,13c2.1,3.6,5,6.3,8.5,8.2c3.5,1.9,7.4,2.8,11.7,2.8c5.8,0,10.5-1.4,14.1-4.2c3.6-2.8,6.2-6.8,7.7-11.8H-184.7z
			"/>
		<path class="st2" d="M-169.5,490.8h12.9v95h-12.9V490.8z M-107.6,518l-35.9,34.1l0.3-8.2l38.2,41.9h-16.5l-34.8-37.9l30.6-29.9
			H-107.6z"/>
	</g>
	<g>
		<rect x="-509.9" y="472.2" class="st2" width="5.3" height="135.6"/>
	</g>
</g>
<rect class="st4" width="1080" height="1080"/>
<g>
	<g>
		<path class="st0" d="M236.5,569.2l-14.7-0.3l30.6-55.9h37.4l-43.6,69.1h-31.9l-35.7-53.6l16.6,0.1l-37.1,53.5h-31.9L85,513.1h37.2
			l28.8,55.9h-14.5l31.9-55.9h37.4L236.5,569.2z"/>
		<path class="st0" d="M334.1,476.8V498h-35.8v-21.2H334.1z M299.3,513.1h33.9v69.1h-33.9V513.1z"/>
		<path class="st0" d="M350.3,484.9h33.9v97.3h-33.9V484.9z"/>
		<path class="st0" d="M450.2,584.2c-10.2,0-19.2-1.4-27.1-4.3c-7.9-2.9-14.1-7-18.7-12.5c-4.6-5.5-6.8-12-6.8-19.7
			c0-8.1,2.3-14.9,6.8-20.3c4.6-5.5,10.8-9.5,18.7-12.3c7.9-2.7,16.9-4.1,27.1-4.1c8.5,0,16.1,0.9,22.8,2.6
			c6.8,1.7,12.6,4.2,17.3,7.5c4.8,3.2,8.5,7.1,11,11.6c2.5,4.5,3.8,9.5,3.8,15c0,5.5-1.3,10.4-3.8,14.9c-2.5,4.5-6.2,8.3-11,11.6
			c-4.8,3.2-10.6,5.7-17.3,7.5C466.3,583.3,458.7,584.2,450.2,584.2z M462.9,562.7c7.1,0,13.7-0.4,19.7-1.3c6-0.9,10.8-2.4,14.4-4.6
			c3.6-2.2,5.4-5.2,5.4-9.2c0-4-1.8-7.1-5.4-9.3c-3.6-2.2-8.4-3.7-14.4-4.5c-6-0.8-12.5-1.3-19.7-1.3c-9.6,0-17,1.2-22.3,3.7
			c-5.3,2.5-7.9,6.3-7.9,11.4c0,3.3,1.2,6.1,3.5,8.3c2.3,2.3,5.8,3.9,10.3,5.1C451.1,562.2,456.5,562.7,462.9,562.7z M502.4,484.9
			h33.9v97.3h-31.9c-0.4-2.2-0.8-5.7-1.3-10.5c-0.5-4.8-0.7-10.3-0.7-16.3V484.9z"/>
	</g>
	<g>
		<path class="st0" d="M646.6,563.9h12c0.5,3.6,2.1,6.6,4.9,8.9c2.8,2.3,6.8,3.5,11.8,3.5c3.3,0,5.8-0.4,7.6-1.2
			c1.8-0.8,3.1-1.8,3.9-3.2c0.8-1.4,1.2-2.9,1.2-4.5c0-2.1-0.5-3.7-1.6-4.8c-1.1-1.1-2.6-2.1-4.6-2.9c-2-0.8-4.3-1.5-7.1-2.2
			c-3-0.8-6-1.8-9-2.9s-5.7-2.4-8.2-3.9c-2.5-1.5-4.5-3.5-6-5.8c-1.5-2.3-2.2-5.1-2.2-8.5c0-2.8,0.6-5.4,1.8-7.9
			c1.2-2.4,3-4.6,5.3-6.3c2.3-1.8,5-3.1,8.1-4.1c3.1-1,6.5-1.4,10.2-1.4c5.2,0,9.5,0.9,13.1,2.8c3.5,1.9,6.2,4.5,8.1,7.8
			c1.9,3.4,2.8,7.2,2.9,11.6h-11.4c-0.6-3.8-1.9-6.6-3.9-8.4c-2-1.8-5-2.7-9-2.7c-3.9,0-6.9,0.8-9,2.3c-2.1,1.5-3.1,3.6-3.1,6.3
			c0,2,0.7,3.6,2.2,4.8s3.4,2.3,5.8,3.2c2.4,0.9,5.2,1.9,8.3,2.9c2.9,1,5.7,2,8.4,3.1c2.7,1,5.1,2.3,7.2,3.7c2.1,1.4,3.8,3.2,5,5.4
			c1.2,2.2,1.8,5,1.8,8.2c0,4-1,7.5-3,10.4c-2,2.9-4.9,5.2-8.6,6.9c-3.8,1.6-8.3,2.4-13.7,2.4c-4.9,0-9-0.6-12.4-1.8
			c-3.4-1.2-6.3-2.7-8.6-4.6c-2.3-1.9-4.1-3.9-5.3-6.1c-1.2-2.1-2-4.2-2.4-6.2C646.6,566.8,646.5,565.1,646.6,563.9z"/>
		<path class="st0" d="M710,518h43.9v11.3H710V518z M725.5,500.1h12.9v85.8h-12.9V500.1z"/>
		<path class="st0" d="M793.1,587.2c-5.8,0-11.1-1.5-15.9-4.5c-4.8-3-8.6-7.1-11.4-12.4c-2.8-5.3-4.2-11.4-4.2-18.3
			c0-6.9,1.4-13,4.3-18.3c2.9-5.3,6.8-9.5,11.8-12.5c5-3,10.6-4.6,16.7-4.6c6.8,0,12.1,1.6,15.8,4.8c3.8,3.2,6.4,7.4,7.9,12.8
			c1.5,5.3,2.2,11.3,2.2,17.8c0,3.6-0.5,7.5-1.4,11.6s-2.4,7.9-4.3,11.6c-2,3.6-4.8,6.5-8.3,8.8
			C802.7,586.1,798.3,587.2,793.1,587.2z M796.7,576c4.8,0,8.9-1.1,12.2-3.2c3.3-2.1,5.8-5,7.4-8.6c1.6-3.6,2.4-7.7,2.4-12.1
			c0-4.8-0.8-9-2.5-12.6c-1.7-3.6-4.2-6.4-7.5-8.4c-3.3-2-7.3-3-12-3c-7.1,0-12.5,2.3-16.4,6.8c-3.9,4.5-5.8,10.3-5.8,17.3
			c0,4.7,1,8.9,2.9,12.4c1.9,3.6,4.5,6.4,7.8,8.4C788.6,574.9,792.4,576,796.7,576z M818.8,518h13.1v67.8h-12
			c-0.4-3.4-0.6-6.2-0.8-8.6c-0.2-2.4-0.3-4.4-0.3-6.3V518z"/>
		<path class="st0" d="M915.3,560c-0.5,5.6-2.3,10.5-5.4,14.6c-3,4.1-7,7.3-11.9,9.4c-4.9,2.2-10.3,3.3-16.3,3.3
			c-6.6,0-12.7-1.4-18.2-4.1c-5.5-2.8-9.9-6.8-13.3-12.1c-3.3-5.3-5-11.6-5-19c0-7.4,1.7-13.8,5-19.1c3.3-5.3,7.7-9.4,13.3-12.2
			c5.5-2.8,11.6-4.2,18.2-4.2c6,0,11.4,1.1,16.2,3.3c4.8,2.2,8.7,5.3,11.8,9.3c3.1,4,4.9,8.9,5.6,14.5h-11.8
			c-1.5-4.9-4.3-8.8-8.2-11.6c-3.9-2.9-8.5-4.3-13.5-4.3c-4.2,0-8,1-11.6,2.9c-3.6,1.9-6.4,4.6-8.6,8.2c-2.1,3.6-3.2,8-3.2,13.3
			c0,5.1,1.1,9.4,3.2,13c2.1,3.6,5,6.3,8.5,8.2c3.5,1.9,7.4,2.8,11.7,2.8c5.8,0,10.5-1.4,14.1-4.2c3.6-2.8,6.2-6.8,7.7-11.8H915.3z"
			/>
		<path class="st0" d="M930.5,490.8h12.9v95h-12.9V490.8z M992.4,518l-35.9,34.1l0.3-8.2l38.2,41.9h-16.5l-34.8-37.9l30.6-29.9
			H992.4z"/>
	</g>
	<g>
		<rect x="590.1" y="472.2" class="st0" width="5.3" height="135.6"/>
	</g>
</g>
<g>
	<g>
		<path class="st0" d="M2020,354.9h-760c-13.1,0-23.7-10.6-23.7-23.7V164c0-13.1,10.6-23.7,23.7-23.7h760
			c13.1,0,23.7,10.6,23.7,23.7v167.2C2043.7,344.3,2033.1,354.9,2020,354.9z"/>
		<g>
			<g>
				<path d="M1432.4,267.5l-10-0.2l20.9-38.2h25.6l-29.8,47.3h-21.8l-24.4-36.7l11.4,0.1l-25.4,36.6h-21.8l-28.3-47.3h25.5
					l19.7,38.2h-9.9l21.8-38.2h25.6L1432.4,267.5z"/>
				<path d="M1499.2,204.4v14.5h-24.5v-14.5H1499.2z M1475.4,229.2h23.2v47.3h-23.2V229.2z"/>
				<path d="M1510.3,209.9h23.2v66.6h-23.2V209.9z"/>
				<path d="M1578.6,277.8c-6.9,0-13.1-1-18.5-2.9c-5.4-2-9.7-4.8-12.8-8.5c-3.1-3.7-4.7-8.2-4.7-13.5c0-5.5,1.6-10.2,4.7-13.9
					c3.1-3.7,7.4-6.5,12.8-8.4c5.4-1.9,11.6-2.8,18.5-2.8c5.8,0,11,0.6,15.6,1.8c4.6,1.2,8.6,2.9,11.9,5.1c3.3,2.2,5.8,4.9,7.5,8
					c1.7,3.1,2.6,6.5,2.6,10.2c0,3.7-0.9,7.1-2.6,10.2c-1.7,3.1-4.2,5.7-7.5,7.9c-3.3,2.2-7.2,3.9-11.9,5.1
					C1589.6,277.2,1584.4,277.8,1578.6,277.8z M1587.3,263.1c4.9,0,9.4-0.3,13.5-0.9c4.1-0.6,7.4-1.7,9.8-3.1
					c2.5-1.5,3.7-3.6,3.7-6.3c0-2.8-1.2-4.9-3.7-6.4c-2.5-1.5-5.8-2.5-9.8-3.1c-4.1-0.6-8.6-0.9-13.5-0.9c-6.6,0-11.6,0.9-15.2,2.6
					c-3.6,1.7-5.4,4.3-5.4,7.8c0,2.3,0.8,4.1,2.4,5.7c1.6,1.5,4,2.7,7,3.5C1579.2,262.7,1582.9,263.1,1587.3,263.1z M1614.3,209.9
					h23.2v66.6h-21.8c-0.3-1.5-0.5-3.9-0.9-7.2c-0.3-3.3-0.5-7-0.5-11.1V209.9z"/>
			</g>
			<g>
				<path class="st2" d="M1712.9,263.9h8.2c0.3,2.5,1.4,4.5,3.3,6.1c1.9,1.6,4.6,2.4,8.1,2.4c2.2,0,4-0.3,5.2-0.8
					c1.2-0.5,2.1-1.3,2.7-2.2c0.5-0.9,0.8-2,0.8-3.1c0-1.4-0.4-2.5-1.1-3.3c-0.7-0.8-1.8-1.4-3.2-2c-1.4-0.5-3-1-4.8-1.5
					c-2-0.6-4.1-1.2-6.1-2c-2-0.7-3.9-1.6-5.6-2.7c-1.7-1.1-3.1-2.4-4.1-4c-1-1.6-1.5-3.5-1.5-5.8c0-1.9,0.4-3.7,1.3-5.4
					c0.8-1.7,2-3.1,3.6-4.3c1.6-1.2,3.4-2.1,5.5-2.8c2.1-0.7,4.4-1,7-1c3.5,0,6.5,0.6,8.9,1.9s4.3,3.1,5.5,5.3
					c1.3,2.3,1.9,4.9,2,7.9h-7.8c-0.4-2.6-1.3-4.5-2.7-5.7c-1.4-1.2-3.4-1.8-6.1-1.8c-2.7,0-4.7,0.5-6.1,1.6
					c-1.4,1.1-2.1,2.5-2.1,4.3c0,1.4,0.5,2.5,1.5,3.3c1,0.8,2.3,1.6,4,2.2c1.7,0.6,3.6,1.3,5.7,2c2,0.7,3.9,1.4,5.7,2.1
					c1.8,0.7,3.5,1.6,4.9,2.5c1.5,1,2.6,2.2,3.4,3.7c0.8,1.5,1.3,3.4,1.3,5.6c0,2.7-0.7,5.1-2,7.1c-1.4,2-3.3,3.6-5.9,4.7
					c-2.6,1.1-5.7,1.7-9.3,1.7c-3.3,0-6.2-0.4-8.5-1.2c-2.3-0.8-4.3-1.9-5.9-3.2c-1.6-1.3-2.8-2.7-3.6-4.1c-0.8-1.5-1.4-2.9-1.7-4.2
					C1712.9,265.9,1712.8,264.8,1712.9,263.9z"/>
				<path class="st2" d="M1756.3,232.6h30v7.7h-30V232.6z M1766.9,220.3h8.8V279h-8.8V220.3z"/>
				<path class="st2" d="M1813.1,279.9c-4,0-7.6-1-10.9-3.1c-3.3-2-5.9-4.9-7.8-8.5c-1.9-3.6-2.9-7.8-2.9-12.5c0-4.7,1-8.9,2.9-12.5
					c2-3.6,4.6-6.5,8-8.6c3.4-2.1,7.2-3.1,11.4-3.1c4.7,0,8.3,1.1,10.8,3.3c2.6,2.2,4.4,5.1,5.4,8.7c1,3.7,1.5,7.7,1.5,12.2
					c0,2.5-0.3,5.1-0.9,7.9c-0.6,2.8-1.6,5.4-3,7.9c-1.4,2.5-3.3,4.5-5.7,6C1819.7,279.1,1816.7,279.9,1813.1,279.9z M1815.6,272.2
					c3.3,0,6.1-0.7,8.3-2.2c2.3-1.5,4-3.4,5.1-5.9c1.1-2.5,1.7-5.2,1.7-8.3c0-3.3-0.6-6.2-1.7-8.6c-1.1-2.5-2.9-4.4-5.1-5.8
					c-2.3-1.4-5-2-8.2-2c-4.8,0-8.6,1.6-11.2,4.6c-2.6,3.1-4,7-4,11.8c0,3.2,0.7,6.1,2,8.5c1.3,2.4,3.1,4.4,5.3,5.8
					C1810,271.5,1812.6,272.2,1815.6,272.2z M1830.7,232.6h8.9V279h-8.2c-0.2-2.3-0.4-4.2-0.6-5.9c-0.1-1.6-0.2-3-0.2-4.3V232.6z"/>
				<path class="st2" d="M1896.7,261.3c-0.4,3.8-1.6,7.2-3.7,10c-2.1,2.8-4.8,5-8.1,6.5c-3.3,1.5-7.1,2.2-11.2,2.2
					c-4.5,0-8.7-0.9-12.5-2.8c-3.8-1.9-6.8-4.6-9.1-8.3c-2.3-3.6-3.4-8-3.4-13c0-5.1,1.1-9.4,3.4-13.1c2.3-3.6,5.3-6.4,9.1-8.3
					c3.8-1.9,7.9-2.9,12.5-2.9c4.1,0,7.8,0.7,11.1,2.2c3.3,1.5,6,3.6,8.1,6.4c2.1,2.8,3.4,6.1,3.8,9.9h-8.1c-1.1-3.3-2.9-6-5.6-8
					c-2.7-2-5.8-2.9-9.3-2.9c-2.9,0-5.5,0.7-8,2c-2.4,1.3-4.4,3.2-5.9,5.6c-1.5,2.4-2.2,5.5-2.2,9.1c0,3.5,0.7,6.4,2.2,8.9
					c1.5,2.4,3.4,4.3,5.8,5.6c2.4,1.3,5.1,1.9,8,1.9c4,0,7.2-1,9.7-2.9c2.5-1.9,4.2-4.6,5.3-8.1H1896.7z"/>
				<path class="st2" d="M1907.1,214h8.8v65h-8.8V214z M1949.4,232.6l-24.5,23.3l0.2-5.6l26.1,28.6h-11.3l-23.8-25.9l20.9-20.5
					H1949.4z"/>
			</g>
			<g>
				<rect x="1674.3" y="201.2" class="st2" width="3.6" height="92.7"/>
			</g>
		</g>
	</g>
	<text transform="matrix(1 0 0 1 1240.0587 111.8695)" style="font-family:'Syne-Regular'; font-size:48.7974px;">On White</text>
</g>
<g>
	<g>
		<path class="st3" d="M2020,674.9h-760c-13.1,0-23.7-10.6-23.7-23.7V484c0-13.1,10.6-23.7,23.7-23.7h760
			c13.1,0,23.7,10.6,23.7,23.7v167.2C2043.7,664.3,2033.1,674.9,2020,674.9z"/>
		<g>
			<g>
				<g>
					<path class="st0" d="M1432.4,587.5l-10-0.2l20.9-38.2h25.6l-29.8,47.3h-21.8l-24.4-36.7l11.4,0.1l-25.4,36.6h-21.8l-28.3-47.3
						h25.5l19.7,38.2h-9.9l21.8-38.2h25.6L1432.4,587.5z"/>
					<path class="st0" d="M1499.2,524.3v14.5h-24.5v-14.5H1499.2z M1475.4,549.1h23.2v47.3h-23.2V549.1z"/>
					<path class="st0" d="M1510.3,529.8h23.2v66.6h-23.2V529.8z"/>
					<path class="st0" d="M1578.6,597.8c-6.9,0-13.1-1-18.5-2.9c-5.4-2-9.7-4.8-12.8-8.5c-3.1-3.7-4.7-8.2-4.7-13.5
						c0-5.5,1.6-10.2,4.7-13.9c3.1-3.7,7.4-6.5,12.8-8.4c5.4-1.9,11.6-2.8,18.5-2.8c5.8,0,11,0.6,15.6,1.8c4.6,1.2,8.6,2.9,11.9,5.1
						c3.3,2.2,5.8,4.9,7.5,8c1.7,3.1,2.6,6.5,2.6,10.2c0,3.7-0.9,7.1-2.6,10.2c-1.7,3.1-4.2,5.7-7.5,7.9c-3.3,2.2-7.2,3.9-11.9,5.1
						C1589.6,597.2,1584.4,597.8,1578.6,597.8z M1587.3,583.1c4.9,0,9.4-0.3,13.5-0.9c4.1-0.6,7.4-1.7,9.8-3.1
						c2.5-1.5,3.7-3.6,3.7-6.3c0-2.8-1.2-4.9-3.7-6.4c-2.5-1.5-5.8-2.5-9.8-3.1c-4.1-0.6-8.6-0.9-13.5-0.9c-6.6,0-11.6,0.9-15.2,2.6
						c-3.6,1.7-5.4,4.3-5.4,7.8c0,2.3,0.8,4.1,2.4,5.7c1.6,1.5,4,2.7,7,3.5C1579.2,582.7,1582.9,583.1,1587.3,583.1z M1614.3,529.8
						h23.2v66.6h-21.8c-0.3-1.5-0.5-3.9-0.9-7.2c-0.3-3.3-0.5-7-0.5-11.1V529.8z"/>
				</g>
			</g>
			<g>
				<path class="st2" d="M1712.9,583.9h8.2c0.3,2.5,1.4,4.5,3.3,6.1c1.9,1.6,4.6,2.4,8.1,2.4c2.2,0,4-0.3,5.2-0.8
					c1.2-0.5,2.1-1.3,2.7-2.2c0.5-0.9,0.8-2,0.8-3.1c0-1.4-0.4-2.5-1.1-3.3c-0.7-0.8-1.8-1.4-3.2-2c-1.4-0.5-3-1-4.8-1.5
					c-2-0.6-4.1-1.2-6.1-2c-2-0.7-3.9-1.6-5.6-2.7c-1.7-1.1-3.1-2.4-4.1-4c-1-1.6-1.5-3.5-1.5-5.8c0-1.9,0.4-3.7,1.3-5.4
					c0.8-1.7,2-3.1,3.6-4.3c1.6-1.2,3.4-2.1,5.5-2.8c2.1-0.7,4.4-1,7-1c3.5,0,6.5,0.6,8.9,1.9s4.3,3.1,5.5,5.3
					c1.3,2.3,1.9,4.9,2,7.9h-7.8c-0.4-2.6-1.3-4.5-2.7-5.7c-1.4-1.2-3.4-1.8-6.1-1.8c-2.7,0-4.7,0.5-6.1,1.6
					c-1.4,1.1-2.1,2.5-2.1,4.3c0,1.4,0.5,2.5,1.5,3.3s2.3,1.6,4,2.2c1.7,0.6,3.6,1.3,5.7,2c2,0.7,3.9,1.4,5.7,2.1
					c1.8,0.7,3.5,1.6,4.9,2.5c1.5,1,2.6,2.2,3.4,3.7c0.8,1.5,1.3,3.4,1.3,5.6c0,2.7-0.7,5.1-2,7.1c-1.4,2-3.3,3.6-5.9,4.7
					c-2.6,1.1-5.7,1.7-9.3,1.7c-3.3,0-6.2-0.4-8.5-1.2c-2.3-0.8-4.3-1.9-5.9-3.2c-1.6-1.3-2.8-2.7-3.6-4.1c-0.8-1.5-1.4-2.9-1.7-4.2
					C1712.9,585.9,1712.8,584.7,1712.9,583.9z"/>
				<path class="st2" d="M1756.3,552.5h30v7.7h-30V552.5z M1766.9,540.3h8.8v58.7h-8.8V540.3z"/>
				<path class="st2" d="M1813.1,599.9c-4,0-7.6-1-10.9-3.1c-3.3-2-5.9-4.9-7.8-8.5c-1.9-3.6-2.9-7.8-2.9-12.5c0-4.7,1-8.9,2.9-12.5
					c2-3.6,4.6-6.5,8-8.6c3.4-2.1,7.2-3.1,11.4-3.1c4.7,0,8.3,1.1,10.8,3.3c2.6,2.2,4.4,5.1,5.4,8.7c1,3.7,1.5,7.7,1.5,12.2
					c0,2.5-0.3,5.1-0.9,7.9c-0.6,2.8-1.6,5.4-3,7.9c-1.4,2.5-3.3,4.5-5.7,6C1819.7,599.1,1816.7,599.9,1813.1,599.9z M1815.6,592.2
					c3.3,0,6.1-0.7,8.3-2.2c2.3-1.5,4-3.4,5.1-5.9c1.1-2.5,1.7-5.2,1.7-8.3c0-3.3-0.6-6.2-1.7-8.6c-1.1-2.5-2.9-4.4-5.1-5.8
					c-2.3-1.4-5-2-8.2-2c-4.8,0-8.6,1.6-11.2,4.6c-2.6,3.1-4,7-4,11.8c0,3.2,0.7,6.1,2,8.5c1.3,2.4,3.1,4.4,5.3,5.8
					C1810,591.5,1812.6,592.2,1815.6,592.2z M1830.7,552.5h8.9v46.4h-8.2c-0.2-2.3-0.4-4.2-0.6-5.9c-0.1-1.6-0.2-3-0.2-4.3V552.5z"
					/>
				<path class="st2" d="M1896.7,581.3c-0.4,3.8-1.6,7.2-3.7,10c-2.1,2.8-4.8,5-8.1,6.5c-3.3,1.5-7.1,2.2-11.2,2.2
					c-4.5,0-8.7-0.9-12.5-2.8s-6.8-4.6-9.1-8.3c-2.3-3.6-3.4-8-3.4-13c0-5.1,1.1-9.4,3.4-13.1c2.3-3.6,5.3-6.4,9.1-8.3
					c3.8-1.9,7.9-2.9,12.5-2.9c4.1,0,7.8,0.7,11.1,2.2c3.3,1.5,6,3.6,8.1,6.4c2.1,2.8,3.4,6.1,3.8,9.9h-8.1c-1.1-3.3-2.9-6-5.6-8
					c-2.7-2-5.8-2.9-9.3-2.9c-2.9,0-5.5,0.7-8,2c-2.4,1.3-4.4,3.2-5.9,5.6c-1.5,2.4-2.2,5.5-2.2,9.1c0,3.5,0.7,6.4,2.2,8.9
					c1.5,2.4,3.4,4.3,5.8,5.6c2.4,1.3,5.1,1.9,8,1.9c4,0,7.2-1,9.7-2.9c2.5-1.9,4.2-4.6,5.3-8.1H1896.7z"/>
				<path class="st2" d="M1907.1,533.9h8.8v65h-8.8V533.9z M1949.4,552.5l-24.5,23.3l0.2-5.6l26.1,28.6h-11.3l-23.8-25.9l20.9-20.5
					H1949.4z"/>
			</g>
			<g>
				<rect x="1674.3" y="521.2" class="st2" width="3.6" height="92.7"/>
			</g>
		</g>
	</g>
	<text transform="matrix(1 0 0 1 1240.0587 429.7826)" style="font-family:'Syne-Regular'; font-size:48.7974px;">On Dark</text>
</g>
<g>
	<g>
		<path class="st4" d="M2020,1008.4h-760c-13.1,0-23.7-10.6-23.7-23.7V817.4c0-13.1,10.6-23.7,23.7-23.7h760
			c13.1,0,23.7,10.6,23.7,23.7v167.2C2043.7,997.8,2033.1,1008.4,2020,1008.4z"/>
		<g>
			<g>
				<g>
					<g>
						<path class="st0" d="M1432.4,921l-10-0.2l20.9-38.2h25.6l-29.8,47.3h-21.8l-24.4-36.7l11.4,0.1l-25.4,36.6h-21.8l-28.3-47.3
							h25.5l19.7,38.2h-9.9l21.8-38.2h25.6L1432.4,921z"/>
						<path class="st0" d="M1499.2,857.8v14.5h-24.5v-14.5H1499.2z M1475.4,882.6h23.2v47.3h-23.2V882.6z"/>
						<path class="st0" d="M1510.3,863.3h23.2v66.6h-23.2V863.3z"/>
						<path class="st0" d="M1578.6,931.2c-6.9,0-13.1-1-18.5-2.9c-5.4-2-9.7-4.8-12.8-8.5c-3.1-3.7-4.7-8.2-4.7-13.5
							c0-5.5,1.6-10.2,4.7-13.9c3.1-3.7,7.4-6.5,12.8-8.4c5.4-1.9,11.6-2.8,18.5-2.8c5.8,0,11,0.6,15.6,1.8
							c4.6,1.2,8.6,2.9,11.9,5.1c3.3,2.2,5.8,4.9,7.5,8c1.7,3.1,2.6,6.5,2.6,10.2c0,3.7-0.9,7.1-2.6,10.2c-1.7,3.1-4.2,5.7-7.5,7.9
							c-3.3,2.2-7.2,3.9-11.9,5.1C1589.6,930.6,1584.4,931.2,1578.6,931.2z M1587.3,916.6c4.9,0,9.4-0.3,13.5-0.9
							c4.1-0.6,7.4-1.7,9.8-3.1c2.5-1.5,3.7-3.6,3.7-6.3c0-2.8-1.2-4.9-3.7-6.4c-2.5-1.5-5.8-2.5-9.8-3.1c-4.1-0.6-8.6-0.9-13.5-0.9
							c-6.6,0-11.6,0.9-15.2,2.6c-3.6,1.7-5.4,4.3-5.4,7.8c0,2.3,0.8,4.1,2.4,5.7c1.6,1.5,4,2.7,7,3.5
							C1579.2,916.2,1582.9,916.6,1587.3,916.6z M1614.3,863.3h23.2v66.6h-21.8c-0.3-1.5-0.5-3.9-0.9-7.2c-0.3-3.3-0.5-7-0.5-11.1
							V863.3z"/>
					</g>
				</g>
				<g>
					<g>
						<g>
							<path class="st0" d="M1712.9,917.3h8.2c0.3,2.5,1.4,4.5,3.3,6.1c1.9,1.6,4.6,2.4,8.1,2.4c2.2,0,4-0.3,5.2-0.8
								c1.2-0.5,2.1-1.3,2.7-2.2c0.5-0.9,0.8-2,0.8-3.1c0-1.4-0.4-2.5-1.1-3.3c-0.7-0.8-1.8-1.4-3.2-2c-1.4-0.5-3-1-4.8-1.5
								c-2-0.6-4.1-1.2-6.1-2c-2-0.7-3.9-1.6-5.6-2.7c-1.7-1.1-3.1-2.4-4.1-4c-1-1.6-1.5-3.5-1.5-5.8c0-1.9,0.4-3.7,1.3-5.4
								c0.8-1.7,2-3.1,3.6-4.3c1.6-1.2,3.4-2.1,5.5-2.8c2.1-0.7,4.4-1,7-1c3.5,0,6.5,0.6,8.9,1.9s4.3,3.1,5.5,5.3
								c1.3,2.3,1.9,4.9,2,7.9h-7.8c-0.4-2.6-1.3-4.5-2.7-5.7c-1.4-1.2-3.4-1.8-6.1-1.8c-2.7,0-4.7,0.5-6.1,1.6
								c-1.4,1.1-2.1,2.5-2.1,4.3c0,1.4,0.5,2.5,1.5,3.3c1,0.8,2.3,1.6,4,2.2c1.7,0.6,3.6,1.3,5.7,2c2,0.7,3.9,1.4,5.7,2.1
								c1.8,0.7,3.5,1.6,4.9,2.5c1.5,1,2.6,2.2,3.4,3.7c0.8,1.5,1.3,3.4,1.3,5.6c0,2.7-0.7,5.1-2,7.1c-1.4,2-3.3,3.6-5.9,4.7
								c-2.6,1.1-5.7,1.7-9.3,1.7c-3.3,0-6.2-0.4-8.5-1.2c-2.3-0.8-4.3-1.9-5.9-3.2c-1.6-1.3-2.8-2.7-3.6-4.1
								c-0.8-1.5-1.4-2.9-1.7-4.2C1712.9,919.3,1712.8,918.2,1712.9,917.3z"/>
						</g>
					</g>
					<g>
						<g>
							<path class="st0" d="M1756.3,886h30v7.7h-30V886z M1766.9,873.7h8.8v58.7h-8.8V873.7z"/>
						</g>
					</g>
					<g>
						<g>
							<path class="st0" d="M1813.1,933.3c-4,0-7.6-1-10.9-3.1c-3.3-2-5.9-4.9-7.8-8.5c-1.9-3.6-2.9-7.8-2.9-12.5
								c0-4.7,1-8.9,2.9-12.5c2-3.6,4.6-6.5,8-8.6c3.4-2.1,7.2-3.1,11.4-3.1c4.7,0,8.3,1.1,10.8,3.3c2.6,2.2,4.4,5.1,5.4,8.7
								c1,3.7,1.5,7.7,1.5,12.2c0,2.5-0.3,5.1-0.9,7.9c-0.6,2.8-1.6,5.4-3,7.9c-1.4,2.5-3.3,4.5-5.7,6
								C1819.7,932.6,1816.7,933.3,1813.1,933.3z M1815.6,925.6c3.3,0,6.1-0.7,8.3-2.2c2.3-1.5,4-3.4,5.1-5.9
								c1.1-2.5,1.7-5.2,1.7-8.3c0-3.3-0.6-6.2-1.7-8.6c-1.1-2.5-2.9-4.4-5.1-5.8c-2.3-1.4-5-2-8.2-2c-4.8,0-8.6,1.6-11.2,4.6
								c-2.6,3.1-4,7-4,11.8c0,3.2,0.7,6.1,2,8.5c1.3,2.4,3.1,4.4,5.3,5.8C1810,924.9,1812.6,925.6,1815.6,925.6z M1830.7,886h8.9
								v46.4h-8.2c-0.2-2.3-0.4-4.2-0.6-5.9c-0.1-1.6-0.2-3-0.2-4.3V886z"/>
						</g>
					</g>
					<g>
						<g>
							<path class="st0" d="M1896.7,914.7c-0.4,3.8-1.6,7.2-3.7,10c-2.1,2.8-4.8,5-8.1,6.5c-3.3,1.5-7.1,2.2-11.2,2.2
								c-4.5,0-8.7-0.9-12.5-2.8c-3.8-1.9-6.8-4.6-9.1-8.3c-2.3-3.6-3.4-8-3.4-13c0-5.1,1.1-9.4,3.4-13.1c2.3-3.6,5.3-6.4,9.1-8.3
								c3.8-1.9,7.9-2.9,12.5-2.9c4.1,0,7.8,0.7,11.1,2.2c3.3,1.5,6,3.6,8.1,6.4c2.1,2.8,3.4,6.1,3.8,9.9h-8.1c-1.1-3.3-2.9-6-5.6-8
								c-2.7-2-5.8-2.9-9.3-2.9c-2.9,0-5.5,0.7-8,2c-2.4,1.3-4.4,3.2-5.9,5.6c-1.5,2.4-2.2,5.5-2.2,9.1c0,3.5,0.7,6.4,2.2,8.9
								c1.5,2.4,3.4,4.3,5.8,5.6c2.4,1.3,5.1,1.9,8,1.9c4,0,7.2-1,9.7-2.9c2.5-1.9,4.2-4.6,5.3-8.1H1896.7z"/>
						</g>
					</g>
					<g>
						<g>
							<path class="st0" d="M1907.1,867.4h8.8v65h-8.8V867.4z M1949.4,886l-24.5,23.3l0.2-5.6l26.1,28.6h-11.3l-23.8-25.9L1937,886
								H1949.4z"/>
						</g>
					</g>
				</g>
				<g>
					<g>
						<rect x="1674.3" y="854.7" class="st0" width="3.6" height="92.7"/>
					</g>
				</g>
			</g>
		</g>
	</g>
	<text transform="matrix(1 0 0 1 1240.0587 761.6986)" style="font-family:'Syne-Regular'; font-size:48.7974px;">On Coral</text>
</g>
</svg>
